# xmcd
#
# Track frame offsets:
#	150
#	17402
#	34215
#	66430
#	104525
#	140715
#	168002
#	191802
#	210097
#	234967
#	254470
#	273675
#	295622
#	311812
#
# Disc length: 4409 seconds
#
# Revision: 0
# Processed by: cddbd v1.5.2PL0 Copyright (c) Steve Scherf et al.
# Submitted via: EasyCDDAExtractor 12.0.7.1
#
DISCID=cb11370e
DTITLE=Various Artist - CLASSICOS DOS BAILES-SOM LIVRE-VOL-03-1999/15/02/2010
DYEAR=1999
DGENRE=FREESTYLE
TTITLE0=M.V.P - DO IT TO ME (BY DJ GILMAR SINISTRO)
TTITLE1=BERNADETTE - YOUR ARE THE ONE (BY DJ GILMAR SINISTRO)
TTITLE2=FIREFLY - LOVE IS GONNA BE ON YOUR SIDE (BY DJ GILMAR SINISTRO)
TTITLE3=MCL FEAT. FRANK S. - BLAME IT ON THE SAMBA (BY DJ GILMAR SINISTRO)
TTITLE4=VIZ ZEE - FUNKY BEE-BOP (BY DJ GILMAR SINISTRO)
TTITLE5=MOSKWA TV - TELL ME, TELL ME (BY DJ GILMAR SINISTRO)
TTITLE6=TONY GARCIA FEAT. REINALD-O - MY SWEET LOVE (BY DJ GILMAR SINISTRO)
TTITLE7=COUNT TO TWENTY - YOU ARE THE ONE (BY DJ GILMAR SINISTRO)
TTITLE8=DIMPLES D - SUCKER DJ (BY DJ GILMAR SINISTRO)
TTITLE9=RAY GUELL - GIVIN' UP (BY DJ GILMAR SINISTRO)
TTITLE10=TONY GARCIA FEAT. N.V - GIRL YOU HEAR ME CRYING (BY DJ GILMAR SINISTR
TTITLE10=O)
TTITLE11=JOSSETE - IN A DREAM (BY DJ GILMAR SINISTRO)
TTITLE12=DEBBIE DEB - THERE'S A PARTY GOIN' ON (BY DJ GILMAR SINISTRO)
TTITLE13=SEDUCTION - TWO TO MAKE IT RIGHT (BY DJ GILMAR SINISTRO)
EXTD=
EXTT0=
EXTT1=
EXTT2=
EXTT3=
EXTT4=
EXTT5=
EXTT6=
EXTT7=
EXTT8=
EXTT9=
EXTT10=
EXTT11=
EXTT12=
EXTT13=
PLAYORDER=
